<svg width="32" height="32" viewBox="0 0 32 32" fill="none" xmlns="http://www.w3.org/2000/svg">
  <rect width="32" height="32" rx="4" fill="#121212"/>
  <path d="M16 5C9.925 5 5 9.925 5 16C5 22.075 9.925 27 16 27C22.075 27 27 22.075 27 16C27 9.925 22.075 5 16 5ZM16 7.5C17.657 7.5 19 8.843 19 10.5C19 12.157 17.657 13.5 16 13.5C14.343 13.5 13 12.157 13 10.5C13 8.843 14.343 7.5 16 7.5ZM10.5 21C8.843 21 7.5 19.657 7.5 18C7.5 16.343 8.843 15 10.5 15C12.157 15 13.5 16.343 13.5 18C13.5 19.657 12.157 21 10.5 21ZM21.5 21C19.843 21 18.5 19.657 18.5 18C18.5 16.343 19.843 15 21.5 15C23.157 15 24.5 16.343 24.5 18C24.5 19.657 23.157 21 21.5 21Z" fill="#FF6B00"/>
</svg>
